<svg width="79" height="32" viewBox="0 0 79 32" fill="none" xmlns="http://www.w3.org/2000/svg">
<g opacity="0.8">
<path d="M10.9273 10.3267H10.1432C10.1432 11.5946 9.22566 12.9293 7.4239 12.9293C5.3719 12.9293 3.00293 11.3611 3.00293 6.67317C3.00293 1.98527 5.3719 0.417073 7.4239 0.417073C9.22566 0.417073 9.92634 1.75171 9.92634 3.01961H10.7104V0.200195C10.0431 0.100097 8.52498 0 7.4239 0C3.38663 0 0 1.66829 0 6.67317C0 11.678 3.38663 13.3463 7.4239 13.3463C8.52498 13.3463 10.26 13.2462 10.9273 13.1461V10.3267Z" fill="#2B2B2B"/>
<path d="M15.1 0H11.9302V0.417073C12.2639 0.417073 12.5976 0.750731 12.5976 1.08439V13.3463H15.7673V12.9293C15.4337 12.9293 15.1 12.5956 15.1 12.262V0Z" fill="#2B2B2B"/>
<path d="M24.7349 9.07551C24.7349 6.37288 23.5504 4.60449 20.6142 4.60449C19.5132 4.60449 18.8625 4.6879 17.4945 4.83805V7.85766H18.2786C18.2786 6.58976 18.8125 5.00488 20.6142 5.00488C21.4651 5.00488 22.0656 5.40527 22.1824 6.2561C22.5661 8.97541 16.5936 7.89102 16.5936 11.1275C16.5936 12.9293 17.995 13.5799 19.313 13.5799C20.6476 13.5799 21.7654 12.7291 22.2325 11.9783V13.3463H25.4022V12.9293C25.0686 12.9293 24.7349 12.5956 24.7349 12.262V9.07551ZM20.4474 12.5622C19.6633 12.5622 19.2462 12.0117 19.2462 11.1275C19.2462 9.40917 21.9322 8.59171 22.2325 7.55737C22.2492 8.29141 22.2325 9.02546 22.2325 9.07551V10.9607C22.0656 11.7114 21.2315 12.5622 20.4474 12.5622Z" fill="#2B2B2B"/>
<path d="M28.2404 6.23941C28.2404 5.28849 29.158 5.00488 29.6418 5.00488C31.4435 5.00488 32.1442 6.58976 32.1442 7.85766H32.9283V4.83805C31.5603 4.6879 30.7429 4.60449 29.6418 4.60449C27.4396 4.60449 26.2051 5.472 26.2051 7.02351C26.2051 10.1432 31.5603 9.34244 31.5603 11.578C31.5603 12.4621 30.7595 13.1795 29.8587 13.1795C28.0569 13.1795 26.8557 11.5946 26.8557 10.3267H26.0716V13.3463C27.4396 13.4965 28.7576 13.5799 29.8587 13.5799C32.1109 13.5799 33.5623 12.7458 33.5623 10.8606C33.5623 7.85766 28.2404 7.95776 28.2404 6.23941Z" fill="#2B2B2B"/>
<path d="M36.4027 6.23941C36.4027 5.28849 37.3202 5.00488 37.804 5.00488C39.6058 5.00488 40.3065 6.58976 40.3065 7.85766H41.0906V4.83805C39.7226 4.6879 38.9051 4.60449 37.804 4.60449C35.6019 4.60449 34.3674 5.472 34.3674 7.02351C34.3674 10.1432 39.7226 9.34244 39.7226 11.578C39.7226 12.4621 38.9218 13.1795 38.0209 13.1795C36.2192 13.1795 35.018 11.5946 35.018 10.3267H34.2339V13.3463C35.6019 13.4965 36.9198 13.5799 38.0209 13.5799C40.2731 13.5799 41.7245 12.7458 41.7245 10.8606C41.7245 7.85766 36.4027 7.95776 36.4027 6.23941Z" fill="#2B2B2B"/>
<path d="M50.6876 4.83805H49.6866L47.5345 10.0765L45.3157 4.83805H42.3461V5.25512C42.6797 5.25512 42.8966 5.62215 43.0134 5.92244L46.0997 13.5966L45.1655 15.8655C44.2813 17.8507 42.1793 18.3512 42.1793 15.3316H41.3952V18.3512C43.2303 18.6348 44.9653 18.2845 45.9996 15.8655L50.0202 5.92244C50.137 5.62215 50.3539 5.25512 50.6876 5.25512V4.83805Z" fill="#2B2B2B"/>
<path d="M20.1488 16.1383C20.1488 14.5368 21.6169 14.1197 22.3509 14.1197C25.0702 14.1197 26.5383 16.6722 26.5383 18.5907H27.3224V14.0196C25.2537 13.8027 24.0025 13.7026 22.3509 13.7026C19.0143 13.7026 17.1458 15.1374 17.1458 17.3228C17.1458 21.6938 25.3372 20.8429 25.3372 24.2129C25.3372 25.5642 24.3195 26.8321 22.6679 26.8321C19.9486 26.8321 17.7297 24.2462 17.7297 22.3277H16.9456V26.8988C19.0143 27.1157 20.9996 27.2492 22.6679 27.2492C26.0712 27.2492 28.2734 25.9813 28.2734 23.1285C28.2734 18.5907 20.1488 18.7409 20.1488 16.1383Z" fill="#2B2B2B"/>
<path d="M32.4406 19.8253C32.4406 19.4916 32.7742 19.158 33.1079 19.158H34.7261V18.7409H32.4406V15.5711H29.2708V15.9882C29.6045 15.9882 29.9381 16.3219 29.9381 16.6555V18.7409H29.2708V19.158C29.6045 19.158 29.9381 19.4916 29.9381 19.8253V25.0303C29.9381 26.8321 31.3395 27.4827 32.6574 27.4827C33.5416 27.4827 34.3424 27.1157 34.7261 26.6486V26.1147C34.4425 26.3316 34.0755 26.4651 33.7919 26.4651C32.9411 26.4651 32.4406 25.9813 32.4406 25.0303V19.8253Z" fill="#2B2B2B"/>
<path d="M39.8087 18.5073C37.1728 18.5073 35.2376 20.4926 35.2376 23.0117C35.2376 25.5308 37.1728 27.4994 39.8087 27.4994C42.4446 27.4994 44.3798 25.5308 44.3798 23.0117C44.3798 20.4926 42.4446 18.5073 39.8087 18.5073ZM39.8087 27.099C38.7577 27.099 37.9068 25.314 37.9068 23.0117C37.9068 20.7095 38.7577 18.9077 39.8087 18.9077C40.8597 18.9077 41.7105 20.7095 41.7105 23.0117C41.7105 25.314 40.8597 27.099 39.8087 27.099Z" fill="#2B2B2B"/>
<path d="M48.3904 18.7409H45.2206V19.158C45.5543 19.158 45.8879 19.4916 45.8879 19.8253V27.2492H49.0577V26.8321C48.724 26.8321 48.3904 26.4984 48.3904 26.1648V20.6261C49.2745 19.1746 51.0763 19.0078 51.0763 21.577H51.8604V18.5741C50.5424 18.3405 49.358 18.7242 48.3904 19.842V18.7409Z" fill="#2B2B2B"/>
<path d="M59.2883 24.1962C59.622 25.5475 58.7879 27.2492 57.4365 27.0823C56.519 26.9155 55.9684 26.2148 55.7182 25.0137C55.4179 22.6947 61.5572 24.7301 61.5572 21.2767C61.5572 19.4582 59.6887 18.5073 57.7869 18.5073C54.8006 18.5073 52.8654 20.3091 52.8654 22.995C52.8654 25.5141 54.8006 27.4827 57.4365 27.4827C59.8389 27.4827 61.7741 26.2816 61.7741 24.2129C61.7741 23.9626 61.7574 23.679 61.6573 23.3454L59.2883 24.1962ZM57.7702 18.9077C58.7545 18.9077 59.255 19.7752 59.255 20.7095C59.255 22.578 56.152 23.0284 55.5681 23.9793C55.5514 23.679 55.5347 23.3454 55.5347 22.995C55.5347 20.526 56.3521 18.9077 57.7702 18.9077Z" fill="#2B2B2B"/>
</g>
</svg>
