<svg width="25" height="25" viewBox="0 0 25 25" fill="none" xmlns="http://www.w3.org/2000/svg">
<path d="M12.5 3.9837C9.15118 3.9837 4.80466 4.82277 4.80466 4.82277L4.79373 4.83527C3.26851 5.0792 2.09998 6.3898 2.09998 7.9837V12.7837V12.7853V17.5837V17.5853C2.10146 18.3465 2.37427 19.0823 2.86941 19.6605C3.36456 20.2386 4.0496 20.6214 4.80154 20.74L4.80466 20.7446C4.80466 20.7446 9.15118 21.5853 12.5 21.5853C15.8488 21.5853 20.1953 20.7446 20.1953 20.7446L20.1968 20.7431C20.9496 20.6248 21.6354 20.2417 22.131 19.6628C22.6265 19.084 22.8992 18.3473 22.9 17.5853V17.5837V12.7853V12.7837V7.9837C22.8989 7.22221 22.6262 6.48607 22.131 5.90755C21.6359 5.32903 20.9506 4.94607 20.1984 4.82745L20.1953 4.82277C20.1953 4.82277 15.8488 3.9837 12.5 3.9837ZM10.1 9.10245L16.5 12.7837L10.1 16.465V9.10245Z" fill="#333333"/>
</svg>
